{"accessors": [{"bufferView": 0, "byteOffset": 0, "componentType": 5126, "count": 18308, "type": "VEC3", "max": [6.619522984146916, 6.561587331538138, 6.764461523268635], "min": [-6.616703667870037, -6.9008405132262, -6.764461523268635]}, {"bufferView": 1, "byteOffset": 0, "componentType": 5126, "count": 111990, "type": "VEC3", "max": [6.934222500326007, 4.225605466564452, 6.932270951407094], "min": [-6.930307625585133, -7.503775758272722, -6.932270951407094]}, {"bufferView": 2, "byteOffset": 0, "componentType": 5126, "count": 57490, "type": "VEC3", "max": [41.66469098164803, 4.4471429357455055, 21.553457223205154], "min": [-12.537795739934815, -41.29418029742, -21.553457223205154]}, {"bufferView": 3, "byteOffset": 0, "componentType": 5126, "count": 81000, "type": "VEC3", "max": [6.627216321974492, 1.1686084466823963, 6.618270279804219], "min": [-6.617642395926857, -1.218086636999795, -6.618270279804219]}, {"bufferView": 4, "byteOffset": 0, "componentType": 5126, "count": 920998, "type": "VEC3", "max": [1.3035922843521741, 1.3272198819475887, 1.222267217269691], "min": [-1.2995863516106985, -1.1296472868319107, -1.289327260175948]}, {"bufferView": 5, "componentType": 5126, "count": 2143, "type": "VEC3", "max": [1.0000005960464478, 1, 1.000001072883606], "min": [-1.000000238418579, -1, -1]}, {"bufferView": 6, "componentType": 5126, "count": 2143, "type": "VEC3"}, {"bufferView": 7, "componentType": 5126, "count": 2143, "type": "VEC2"}, {"bufferView": 8, "componentType": 5123, "count": 11904, "type": "SCALAR"}], "asset": {"version": "2.0"}, "buffers": [{"uri": "sat_gps_vertices_0.bin", "byteLength": 219696}, {"uri": "sat_comms_vertices_0.bin", "byteLength": 1343880}, {"uri": "sat_tech_vertices_0.bin", "byteLength": 689880}, {"uri": "sat_earth_vertices_0.bin", "byteLength": 972000}, {"uri": "routes_vertices_0.bin", "byteLength": 11051976}, {"uri": "earth.bin", "byteLength": 92384}], "bufferViews": [{"buffer": 0, "byteOffset": 0, "byteLength": 219696, "target": 34962}, {"buffer": 1, "byteOffset": 0, "byteLength": 1343880, "target": 34962}, {"buffer": 2, "byteOffset": 0, "byteLength": 689880, "target": 34962}, {"buffer": 3, "byteOffset": 0, "byteLength": 972000, "target": 34962}, {"buffer": 4, "byteOffset": 0, "byteLength": 11051976, "target": 34962}, {"buffer": 5, "byteOffset": 0, "byteLength": 25716}, {"buffer": 5, "byteOffset": 25716, "byteLength": 25716}, {"buffer": 5, "byteOffset": 51432, "byteLength": 17144}, {"buffer": 5, "byteOffset": 68576, "byteLength": 23808}], "images": [{"name": "landmak", "uri": "landmak.png", "mimeType": "image/png"}], "materials": [{"name": "sat_gps_material", "pbrMetallicRoughness": {"baseColorFactor": [1, 0, 0, 1]}, "emissiveFactor": [1, 0, 0]}, {"name": "sat_comms_material", "pbrMetallicRoughness": {"baseColorFactor": [0, 0, 1, 1]}, "emissiveFactor": [0, 0, 1]}, {"name": "sat_tech_material", "pbrMetallicRoughness": {"baseColorFactor": [0, 1, 0, 1]}, "emissiveFactor": [0, 1, 0]}, {"name": "sat_earth_material", "pbrMetallicRoughness": {"baseColorFactor": [1, 1, 1, 1]}, "emissiveFactor": [1, 1, 1]}, {"name": "routes_material", "pbrMetallicRoughness": {"baseColorFactor": [1, 0, 0, 1]}, "emissiveFactor": [1, 0, 0]}, {"name": "earth", "pbrMetallicRoughness": {"baseColorTexture": {"index": 0, "texCoord": 0}, "metallicFactor": 0, "roughnessFactor": 0.5}, "emissiveFactor": [0, 0, 0], "doubleSided": true}], "meshes": [{"name": "orbits", "primitives": [{"attributes": {"POSITION": 0}, "material": 0, "mode": 1}]}, {"name": "orbits", "primitives": [{"attributes": {"POSITION": 1}, "material": 1, "mode": 1}]}, {"name": "orbits", "primitives": [{"attributes": {"POSITION": 2}, "material": 2, "mode": 1}]}, {"name": "orbits", "primitives": [{"attributes": {"POSITION": 3}, "material": 3, "mode": 1}]}, {"name": "airlines", "primitives": [{"attributes": {"POSITION": 4}, "material": 4, "mode": 1}]}, {"name": "Sphere.001", "primitives": [{"attributes": {"POSITION": 5, "NORMAL": 6, "TEXCOORD_0": 7}, "indices": 8, "material": 5}]}], "nodes": [{"name": "orbits", "mesh": 0}, {"name": "orbits", "mesh": 1}, {"name": "orbits", "mesh": 2}, {"name": "orbits", "mesh": 3}, {"name": "airlines", "mesh": 4}, {"name": "Sphere", "mesh": 5}], "scenes": [{"nodes": [0, 1, 2, 3, 4, 5]}], "textures": [{"source": 0}]}